<svg width="81" height="79" viewBox="0 0 81 79" fill="none" xmlns="http://www.w3.org/2000/svg">
<mask id="path-1-inside-1_43_462" fill="white">
<path d="M59.6109 78.7192C65.2658 75.4195 70.0709 70.8434 73.6427 65.3564C77.2145 59.8694 79.454 53.6233 80.1825 47.1168C80.911 40.6103 80.1083 34.0235 77.8385 27.8824C75.5687 21.7413 71.8946 16.2159 67.1095 11.7473C62.3245 7.27868 56.561 3.99061 50.2792 2.14558C43.9973 0.300556 37.3712 -0.0503279 30.9296 1.12094C24.4881 2.29221 18.4096 4.95319 13.1794 8.89146C7.94912 12.8297 3.71203 17.9362 0.806309 23.8032L1.79113 24.291C4.62082 18.5775 8.74704 13.6046 13.8404 9.76939C18.9338 5.93417 24.8533 3.34282 31.1263 2.2022C37.3992 1.06158 43.852 1.40328 49.9695 3.20003C56.0869 4.99678 61.6996 8.19881 66.3594 12.5505C71.0193 16.9022 74.5972 22.283 76.8077 28.2634C79.0181 34.2439 79.7998 40.6582 79.0903 46.9945C78.3809 53.3307 76.2 59.4134 72.7216 64.7568C69.2433 70.1003 64.5639 74.5566 59.057 77.77L59.6109 78.7192Z"/>
</mask>
<path d="M59.6109 78.7192C65.2658 75.4195 70.0709 70.8434 73.6427 65.3564C77.2145 59.8694 79.454 53.6233 80.1825 47.1168C80.911 40.6103 80.1083 34.0235 77.8385 27.8824C75.5687 21.7413 71.8946 16.2159 67.1095 11.7473C62.3245 7.27868 56.561 3.99061 50.2792 2.14558C43.9973 0.300556 37.3712 -0.0503279 30.9296 1.12094C24.4881 2.29221 18.4096 4.95319 13.1794 8.89146C7.94912 12.8297 3.71203 17.9362 0.806309 23.8032L1.79113 24.291C4.62082 18.5775 8.74704 13.6046 13.8404 9.76939C18.9338 5.93417 24.8533 3.34282 31.1263 2.2022C37.3992 1.06158 43.852 1.40328 49.9695 3.20003C56.0869 4.99678 61.6996 8.19881 66.3594 12.5505C71.0193 16.9022 74.5972 22.283 76.8077 28.2634C79.0181 34.2439 79.7998 40.6582 79.0903 46.9945C78.3809 53.3307 76.2 59.4134 72.7216 64.7568C69.2433 70.1003 64.5639 74.5566 59.057 77.77L59.6109 78.7192Z" stroke="url(#paint0_linear_43_462)" stroke-width="4" mask="url(#path-1-inside-1_43_462)"/>
<defs>
<linearGradient id="paint0_linear_43_462" x1="20.9434" y1="-1.55664" x2="28.4434" y2="89.4434" gradientUnits="userSpaceOnUse">
<stop stop-color="#10B981"/>
<stop offset="1" stop-color="#10B981" stop-opacity="0"/>
</linearGradient>
</defs>
</svg>
